<?xml version="1.0" encoding="UTF-8"?>
<svg xmlns="http://www.w3.org/2000/svg" version="1.1" xmlns:xlink="http://www.w3.org/1999/xlink" viewBox="0 0 566.93 566.93">
  <defs>
    <style>
      .cls-1 {
        letter-spacing: -.02em;
      }

      .cls-2 {
        letter-spacing: -.02em;
      }

      .cls-3 {
        fill: #dadada;
      }

      .cls-4 {
        opacity: .53;
      }

      .cls-4, .cls-5, .cls-6 {
        fill: #e0cccb;
      }

      .cls-7 {
        fill: #f7f8f5;
      }

      .cls-8 {
        font-size: 15.42px;
      }

      .cls-8, .cls-9, .cls-10, .cls-11, .cls-12, .cls-13, .cls-14, .cls-15 {
        fill: #1d1d1b;
      }

      .cls-8, .cls-10, .cls-12, .cls-13, .cls-15 {
        font-family: DuplicateSans-Light, 'Duplicate Sans';
        font-weight: 300;
      }

      .cls-16 {
        letter-spacing: -.02em;
      }

      .cls-17 {
        fill: url(#DEPORTES_nuevo_100_3);
      }

      .cls-18, .cls-19 {
        fill: #fff;
      }

      .cls-20 {
        fill: url(#GRIS_globo);
      }

      .cls-21 {
        letter-spacing: -.02em;
      }

      .cls-22 {
        letter-spacing: -.02em;
      }

      .cls-23 {
        fill: none;
      }

      .cls-10 {
        font-size: 15.42px;
      }

      .cls-24 {
        clip-path: url(#clippath-1);
      }

      .cls-25 {
        letter-spacing: 0em;
      }

      .cls-26 {
        letter-spacing: 0em;
      }

      .cls-27 {
        letter-spacing: 0em;
      }

      .cls-28 {
        isolation: isolate;
      }

      .cls-11 {
        font-family: DuplicateSans-Regular, 'Duplicate Sans';
      }

      .cls-11, .cls-13 {
        font-size: 15.42px;
      }

      .cls-6 {
        mix-blend-mode: multiply;
      }

      .cls-29 {
        letter-spacing: 0em;
      }

      .cls-30 {
        letter-spacing: 0em;
      }

      .cls-31 {
        fill: url(#GRIS_globo-2);
      }

      .cls-32 {
        letter-spacing: 0em;
      }

      .cls-12 {
        font-size: 15.42px;
      }

      .cls-33 {
        letter-spacing: 0em;
      }

      .cls-34 {
        letter-spacing: 0em;
      }

      .cls-35 {
        letter-spacing: 0em;
      }

      .cls-36 {
        fill: #e8eceb;
      }

      .cls-37 {
        fill: #ededed;
      }

      .cls-38 {
        fill: #dfeffb;
      }

      .cls-39 {
        letter-spacing: 0em;
      }

      .cls-40 {
        letter-spacing: -.02em;
      }

      .cls-14 {
        font-family: DuplicateSans-Medium, 'Duplicate Sans';
        font-size: 17.35px;
        font-weight: 500;
      }

      .cls-41 {
        clip-path: url(#clippath);
      }

      .cls-42 {
        letter-spacing: 0em;
      }

      .cls-19 {
        stroke: #ededed;
        stroke-miterlimit: 10;
        stroke-width: .12px;
      }

      .cls-15 {
        font-size: 15.42px;
      }
    </style>
    <clipPath id="clippath">
      <rect class="cls-23" x="136.58" y="132.04" width="327.15" height="208.01"/>
    </clipPath>
    <pattern id="DEPORTES_nuevo_100_3" data-name="DEPORTES_nuevo_100% 3" x="0" y="0" width="5.66" height="5.66" patternTransform="translate(7300.46 7335.09) scale(1.93)" patternUnits="userSpaceOnUse" viewBox="0 0 5.66 5.66">
      <g>
        <rect class="cls-23" width="5.66" height="5.66"/>
        <polygon class="cls-7" points="3.18 0 0 3.18 0 5.66 2.47 5.66 5.66 2.47 5.66 0 3.18 0"/>
        <polygon class="cls-36" points="2.47 0 0 2.47 0 3.18 3.18 0 2.47 0"/>
        <polygon class="cls-7" points="0 0 0 2.47 2.47 0 0 0"/>
        <polygon class="cls-36" points="2.47 5.66 3.18 5.66 5.66 3.18 5.66 2.47 2.47 5.66"/>
        <polygon class="cls-7" points="3.18 5.66 5.66 5.66 5.66 3.18 3.18 5.66"/>
      </g>
    </pattern>
    <path id="path" d="M359.58,227.97c14.77-41.04,39.3-69.72,58.68-62.74"/>
    <clipPath id="clippath-1">
      <path class="cls-23" d="M218.99,171.9c0,22.01-17.84,39.86-39.86,39.86s-39.85-17.85-39.85-39.86,17.84-39.86,39.85-39.86,39.86,17.84,39.86,39.86Z"/>
    </clipPath>
    <pattern id="GRIS_globo" x="0" y="0" width="5.66" height="5.66" patternTransform="translate(19612.66 19711.32) scale(3.5)" patternUnits="userSpaceOnUse" viewBox="0 0 5.66 5.66">
      <g>
        <rect class="cls-23" x="0" y="0" width="5.66" height="5.66"/>
        <polygon class="cls-3" points="5.66 2.48 5.66 0 3.18 0 0 3.18 0 5.66 2.47 5.66 5.66 2.48"/>
        <polygon class="cls-3" points="3.18 5.66 5.66 5.66 5.66 3.18 3.18 5.66"/>
        <polygon class="cls-37" points="2.47 0 0 2.48 0 3.18 3.18 0 2.47 0"/>
        <polygon class="cls-3" points="0 0 0 2.48 2.47 0 0 0"/>
        <polygon class="cls-37" points="5.66 2.48 2.47 5.66 3.18 5.66 5.66 3.18 5.66 2.48"/>
      </g>
    </pattern>
    <pattern id="GRIS_globo-2" data-name="GRIS_globo" patternTransform="translate(19612.05 19710.7) scale(3.5)" xlink:href="#GRIS_globo"/>
  </defs>
  <!-- Generator: Adobe Illustrator 28.7.1, SVG Export Plug-In . SVG Version: 1.2.0 Build 142)  -->
  <g class="cls-28">
    <g id="Capa_1">
      <g>
        <g class="cls-41">
          <g>
            <polygon class="cls-23" points="143.92 127.08 143.17 132.04 163.59 132.04 163.95 129.65 143.92 127.08"/>
            <polygon class="cls-18" points="141.37 132.04 136.58 132.04 136.58 159.33 137.31 158.91 141.37 132.04"/>
            <path class="cls-17" d="M310.53,335.84c-3.85-6.16.3-10.98,1.82-12.45l-3.3-8.19c-3.48-8.62-12.52-17.37-14.16-18.73-1.19-.99-1.51-2.51-1.85-4.12-.24-1.13-.49-2.3-1.05-3.36-.61-1.16-2.43-2.77-4.54-4.64-2.41-2.13-5.15-4.55-7.38-7.38-2.48-3.14-4.78-6.68-6.46-9.27-1.13-1.74-2.11-3.24-2.52-3.65s-3.15-.58-5.77-.32c-3.4,6.79-5.15,15.29-.69,24.19,8.45,16.91,19.74,23.03,22.65,24.39l4-7.88,1.58.8-4.16,8.18c1.58,2.64,9.6,16.25,12.75,26.63h13.29c-1.43-.64-2.84-2.05-4.2-4.22Z"/>
            <path class="cls-18" d="M154.34,186.93c.75-2.82,1.76-10.61,2.7-18.97l-.14-.16s.1-.07.17-.11c.58-5.16,1.13-10.5,1.57-15.03l-22.08,12.84v30.93l17.13,3.13c-.24-4.4-.43-8.57.64-12.61Z"/>
            <path class="cls-17" d="M263.03,288.72c-8.09-16.17,2.87-30.96,9.13-37.57l-81.32-15.11c-1.94.41-.72-1.3-2.2-1.3-3.6,0-5.85.64-6.06.55l-3.39.92-19.92-3.2c-1.78,1.83-4.88,7.19-5.95,22.65-1.62,23.43-8.17,67.18-10.83,84.39h92.73c1.36-2.23,3.87-6.7,4.37-7.83.32-.72.11-1.8-.09-2.84-.11-.59-.22-1.17-.25-1.69-.05-.78.38-1.97,1.2-4.19.92-2.48,2.17-5.88,2.48-8.79.44-4.17-3.74-6.11-7.69-7.6-1.76-.67-9.47-1.59-16.28-2.4-5.6-.67-10.89-1.3-12.96-1.78-4.74-1.11-5.1-.91-5.67,1.25-.87,3.27-2.26,4.11-2.52,4.25l-.82-1.57s.97-.61,1.64-3.13c1.04-3.91,3.38-3.55,7.79-2.52,1.97.46,7.21,1.09,12.76,1.75,7.25.86,14.74,1.76,16.7,2.5,3.07,1.16,9.44,3.57,8.83,9.45-.33,3.13-1.63,6.65-2.58,9.22-.53,1.42-1.12,3.04-1.1,3.48.03.45.13.95.22,1.46.24,1.24.51,2.66-.03,3.88-.46,1.06-2.48,4.67-3.93,7.12h62.3c-3.24-10.24-11.29-23.86-12.5-25.88-2.14-.88-14.67-6.7-24.05-25.45Z"/>
            <polygon class="cls-18" points="139.28 157.76 161.71 144.72 163.59 132.04 143.17 132.04 139.28 157.76"/>
            <path class="cls-18" d="M153.38,232.08l-16.8-2.7v110.68h.52c2.56-16.54,9.28-61.15,10.91-84.76.74-10.71,2.55-18.47,5.38-23.22Z"/>
            <path class="cls-17" d="M153.66,211.75c.4-3.74.3-7.12.14-10.39l-17.22-3.15v23.35l17.03,2.74c-.32-2.93-.51-7.22.06-12.55Z"/>
            <polygon class="cls-18" points="267.77 140.3 263.95 132.04 218.2 132.04 221.88 139.62 267.77 140.3"/>
            <path class="cls-17" d="M420.35,162.73c-2.62-.42-6.19-.75-10.14-.81l-.02.44c-4.27-.19-8.63-.02-12.97.37-2.96.46-5.84,1.12-8.42,2.06-7.98,2.91-12.65,8.69-15.75,12.52-21.3,26.34-24.58,56.6-20.55,76.14.19.91.43,1.9.7,2.92l110.52,17.76v-83.05c-.23-.25-.46-.52-.73-.82-5.84-6.58-21.34-24.06-42.64-27.52Z"/>
            <path class="cls-18" d="M337.42,142.19c.77.66,1.83.91,3.11.85l23.52-11h-26.78l-1.74,4.83c.07,1.86.48,4.1,1.9,5.32Z"/>
            <polygon class="cls-18" points="164.6 143.05 187.89 132.04 165.39 132.04 163.68 143.58 164.6 143.05"/>
            <path class="cls-17" d="M350.76,165.03c4.08.3,9.01-.19,14.38-.99,3.8-.87,7.27-1.47,10.22-1.73h0c6.84-1.19,14.24-2.48,21.73-3.14,8.85-1.29,18.32-.84,23.82.06,20.5,3.33,35.66,18.63,42.81,26.52v-22.1c-7.9-1.55-15.92-5.94-18.93-14.57-2.08-5.94-4.24-12.06-8.06-17.04h-60.13l-39.47,18.46c2.56,5.57,7.7,14.11,13.62,14.53Z"/>
            <polygon class="cls-18" points="328.6 141.21 323.8 132.04 267.86 132.04 271.71 140.36 328.6 141.21"/>
            <path class="cls-18" d="M165.18,148.85l5.52,12.61c12.67-5.56,32.03-13.88,49.45-21.32l-3.93-8.1h-15.87l-33.38,15.77-1.79,1.04Z"/>
            <path class="cls-18" d="M463.73,158.21v-26.17h-20.55c3,4.91,4.91,10.35,6.64,15.28,2.15,6.16,7.94,9.5,13.91,10.89Z"/>
            <polygon class="cls-18" points="333.49 132.04 327.79 132.04 331.17 138.49 333.49 132.04"/>
            <path class="cls-18" d="M164.16,150.95c-.3,3.1-.82,8.37-1.44,14.05,1.78-.8,3.92-1.75,6.35-2.83l-4.92-11.23Z"/>
            <path class="cls-18" d="M170.5,165.42c-3.4,1.49-6.23,2.74-8.23,3.65-.92,8.07-1.96,16.1-2.79,19.22-.88,3.32-.68,6.98-.45,11.23.2,3.77.43,8.03-.08,12.79-.64,5.93-.24,10.41.13,12.87l4.33.7,27.86-13.03-20.77-47.43Z"/>
            <path class="cls-17" d="M243.77,205.5c1.86-4.32,3.73-9.72,3.11-11.6-.06-.2-.14-.38-.22-.57-.09-.12-.19-.26-.28-.38l-73.62,34.43,24.34,3.91c2.14-1.2,4.43-2.76,6.85-4.82,11.62-9.86,24.69-15.8,39.81-20.97Z"/>
            <path class="cls-18" d="M243.58,188.38c-.07-.13-.14-.25-.2-.38l-21.67-44.66c-15.71,6.71-36.35,15.59-49.58,21.37l20.75,47.38,50.7-23.71Z"/>
            <path class="cls-17" d="M356.58,277.69c-1.79-4.99-3.45-9.61-4.8-13.74l-77.49-12.45c-2.24,2.26-5.41,5.87-7.98,10.38,1.95-.12,5-.11,6.03.92.54.54,1.42,1.89,2.75,3.94,1.66,2.56,3.94,6.06,6.36,9.14,2.14,2.7,4.81,5.07,7.16,7.15,2.33,2.06,4.18,3.69,4.94,5.14.68,1.28.96,2.63,1.21,3.82.29,1.35.53,2.52,1.25,3.12,1.69,1.41,11.06,10.47,14.67,19.43l3.41,8.45c.93.47,3.73,1.94,5.68,3.65,2.69,2.36,2.68,8.68.71,11.49-.3.43-.92,1.18-1.82,1.72l.04.2h50.02c4.79-15.18-4.56-41.27-12.15-62.37Z"/>
            <path class="cls-18" d="M245.32,187.57l36.45-17.05-12.34-26.64-45.82-.68,21.31,43.91c.09.09.23.26.4.47Z"/>
            <path class="cls-17" d="M355.73,264.58c1.22,3.64,2.66,7.63,4.19,11.91,7.59,21.12,16.93,47.12,12.52,63.57h23.3l-18.84-18.11,2.46-2.56,21.5,20.66h13.82c11.48-4.19,34.25-10.71,49.05-3.14v-54.98l-108-17.35Z"/>
            <path class="cls-17" d="M420.34,340.06h43.38v-1.1c-12.16-6.8-31.1-2.78-43.38,1.1Z"/>
            <path class="cls-18" d="M370.29,175.08c2.22-2.75,5.53-6.79,10.41-10.07-1.66.28-3.3.57-4.9.85-3.46.61-6.83,1.2-10.08,1.68-15.95,3.67-38.09,12.27-52.66,19.86-12.11,6.31-20.9,8.41-32.04,11.06-5.84,1.4-12.46,2.97-20.49,5.42-5.84,1.78-11.31,3.49-16.48,5.27,0,.02-.02.05-.03.06l-.06-.03c-14.54,5.02-26.67,10.63-37.71,20-1.31,1.12-2.59,2.09-3.85,2.96l146.98,23.61c-.13-.54-.26-1.08-.37-1.59-4.2-20.33-.82-51.78,21.26-79.09Z"/>
            <path class="cls-17" d="M248.11,192.14c.05.11.08.23.13.34,3.8,4.89,8.2,7.29,10.43,8.26.28-.09.56-.17.84-.26,8.14-2.47,14.81-4.07,20.7-5.47,10.9-2.6,19.5-4.65,31.22-10.76,10.51-5.47,24.92-11.46,38.24-15.82-7.76-1.23-13.31-11.15-15.73-16.43l-85.82,40.14Z"/>
            <path class="cls-17" d="M312.03,334.9c1.53,2.45,3.06,3.76,4.42,3.8,1.33,0,2.31-1.19,2.57-1.57,1.64-2.34,1.4-7.55-.42-9.14-1.64-1.44-4.03-2.74-5.08-3.28-1.25,1.18-4.69,5.1-1.5,10.2Z"/>
            <path class="cls-17" d="M246.01,204.75c3.28-1.1,6.65-2.17,10.13-3.24-2.13-1.14-4.83-2.99-7.45-5.78-.27,2.64-1.52,6.19-2.68,9.01Z"/>
            <polygon class="cls-18" points="331.72 147.16 330.47 144.79 273.37 143.94 284.98 169.02 331.72 147.16"/>
            <path class="cls-18" d="M337.66,144.38c-.51-.21-.98-.48-1.4-.84-.98-.85-1.59-2.01-1.97-3.24l-.88,2.46,1.52,2.9,2.74-1.28Z"/>
            <polygon class="cls-36" points="345.79 108.34 342.45 107.14 333.49 132.04 337.26 132.04 345.79 108.34"/>
            <polygon class="cls-36" points="314.77 107.15 311.62 108.8 323.8 132.04 327.79 132.04 314.77 107.15"/>
            <polygon class="cls-36" points="412.49 115.26 410.24 110.44 364.04 132.04 376.6 132.04 412.49 115.26"/>
            <polygon class="cls-36" points="143.92 127.08 163.95 129.65 163.59 132.04 165.39 132.04 168.13 113.51 166.38 113.25 164.21 127.89 144.19 125.33 146.09 112.75 144.34 112.49 142.43 125.1 111.73 121.16 111.51 122.92 142.16 126.85 141.37 132.04 143.17 132.04 143.92 127.08"/>
            <polygon class="cls-36" points="125.18 165.95 127.85 170.56 136.58 165.48 136.58 159.33 125.18 165.95"/>
            <polygon class="cls-36" points="207.91 128.47 205.64 123.66 191.72 130.23 192.31 115.54 190.53 115.47 189.91 131.09 187.89 132.04 200.36 132.04 207.91 128.47"/>
            <polygon class="cls-36" points="215.96 127.42 214.36 128.19 216.23 132.04 218.2 132.04 215.96 127.42"/>
            <polygon class="cls-36" points="252.9 99.75 249.68 101.24 263.95 132.04 267.86 132.04 252.9 99.75"/>
            <path class="cls-36" d="M300.92,346.57l1.77-.07c-.07-1.87-.54-4.07-1.26-6.44h-1.86c.77,2.43,1.27,4.67,1.35,6.51Z"/>
            <path class="cls-36" d="M316.41,340.47s.07,0,.11,0c.16,0,.31-.03.46-.04l1.49,6.86,1.73-.38-1.49-6.86h-3.99c.56.25,1.12.4,1.69.41Z"/>
            <polygon class="cls-36" points="129.11 195.05 128.79 196.79 136.58 198.21 136.58 196.41 129.11 195.05"/>
            <path class="cls-36" d="M368.32,341.38l3.31,1.28c.32-.83.57-1.71.81-2.6h-3.71c-.14.44-.25.9-.41,1.32Z"/>
            <polygon class="cls-36" points="492.26 286.52 493.49 278.91 463.73 274.12 463.73 281.93 492.26 286.52"/>
            <path class="cls-36" d="M467.28,193.57l1.42-1.01-1.66-.82-.39-1.65c.59-.14,1.07.09,1.2.19-.29-.22-1.26-1.31-2.2-2.37-.55-.62-1.21-1.36-1.93-2.15v5.32c1.93,2.16,2.47,2.65,3.55,2.49Z"/>
            <path class="cls-36" d="M136.09,346.45l5.26.84c.02-.13.45-2.82,1.13-7.23h-5.39c-.61,3.92-.98,6.27-1,6.39Z"/>
            <polygon class="cls-36" points="116.21 218.29 114.99 225.91 136.58 229.38 136.58 221.57 116.21 218.29"/>
            <path class="cls-36" d="M359.92,276.49c-1.54-4.28-2.97-8.27-4.19-11.91l108,17.35v-7.81l-110.52-17.76c-.27-1.02-.52-2.01-.7-2.92-4.03-19.53-.76-49.79,20.55-76.14,3.09-3.83,7.77-9.61,15.75-12.52,2.58-.94,5.45-1.61,8.42-2.06,4.35-.39,8.71-.57,12.97-.37l.02-.44c3.95.07,7.52.39,10.14.81,21.3,3.46,36.81,20.94,42.64,27.52.27.3.5.57.73.82v-5.32c-7.15-7.89-22.3-23.19-42.81-26.52-5.5-.89-14.97-1.35-23.82-.06-7.49.66-14.89,1.95-21.73,3.16h0c-2.95.24-6.42.84-10.22,1.71-5.37.8-10.3,1.29-14.38.99-5.92-.43-11.07-8.96-13.62-14.53l39.47-18.46h-12.56l-23.52,11c-1.28.07-2.34-.19-3.11-.85-1.42-1.22-1.83-3.46-1.9-5.32l1.74-4.83h-3.77l-2.32,6.45-3.37-6.45h-3.99l4.8,9.17-56.89-.85-3.85-8.32h-3.91l3.83,8.26-45.9-.69-3.68-7.58h-1.97l3.93,8.1c-17.42,7.44-36.78,15.76-49.45,21.32l-5.52-12.61,1.79-1.04,33.38-15.77h-12.46l-23.3,11-.92.53,1.71-11.54h-1.79l-1.88,12.68-22.44,13.04,3.89-25.72h-1.8l-4.07,26.86-.73.42v6.15l22.08-12.84c-.44,4.53-.99,9.88-1.57,15.03-.08.05-.14.09-.17.11l.14.16c-.94,8.36-1.96,16.16-2.7,18.97-1.07,4.05-.87,8.21-.64,12.61l-17.13-3.13v1.8l17.22,3.15c.16,3.26.27,6.64-.14,10.39-.57,5.34-.38,9.62-.06,12.55l-17.03-2.74v7.81l16.8,2.7c-2.83,4.75-4.64,12.52-5.38,23.22-1.63,23.61-8.34,68.21-10.91,84.76h5.39c2.66-17.2,9.21-60.96,10.83-84.39,1.07-15.46,4.17-20.82,5.95-22.65l19.92,3.2s6.38.97,10.59,1.7l82.39,13.24c-6.26,6.61-17.21,21.4-9.13,37.57,9.38,18.76,21.91,24.57,24.05,25.45,1.21,2.02,9.26,15.63,12.5,25.88h1.86c-3.15-10.38-11.16-23.99-12.75-26.63l4.16-8.18-1.58-.8-4,7.88c-2.91-1.35-14.2-7.48-22.65-24.39-4.45-8.9-2.71-17.41.69-24.19,2.63-.25,5.34-.11,5.77.32s1.39,1.91,2.52,3.65c1.68,2.59,3.98,6.13,6.46,9.27,2.23,2.83,4.97,5.25,7.38,7.38,2.11,1.87,3.93,3.48,4.54,4.64.56,1.06.81,2.23,1.05,3.36.34,1.61.66,3.12,1.85,4.12,1.64,1.37,10.69,10.11,14.16,18.73l3.3,8.19c-1.52,1.46-5.66,6.29-1.82,12.45,1.36,2.17,2.76,3.57,4.2,4.22h3.99l-.04-.2c.9-.54,1.52-1.29,1.82-1.72,1.98-2.82,1.99-9.14-.71-11.49-1.95-1.71-4.75-3.18-5.68-3.65l-3.41-8.45c-3.62-8.96-12.98-18.02-14.67-19.43-.72-.6-.97-1.77-1.25-3.12-.25-1.19-.54-2.53-1.21-3.82-.76-1.45-2.6-3.08-4.94-5.14-2.36-2.08-5.03-4.45-7.16-7.15-2.43-3.08-4.7-6.58-6.36-9.14-1.33-2.05-2.21-3.4-2.75-3.94-1.03-1.04-4.08-1.04-6.03-.92,2.57-4.51,5.74-8.12,7.98-10.38l77.49,12.45c1.35,4.13,3.01,8.75,4.8,13.74,7.59,21.1,16.94,47.18,12.15,62.37h3.71c4.4-16.44-4.93-42.45-12.52-63.57ZM313.53,324.7c1.04.54,3.44,1.85,5.08,3.28,1.82,1.59,2.06,6.8.42,9.14-.26.38-1.24,1.57-2.57,1.57-1.37-.04-2.9-1.35-4.42-3.8-3.19-5.1.24-9.02,1.5-10.2ZM349.67,168.43c-13.32,4.36-27.73,10.34-38.24,15.82-11.72,6.11-20.33,8.16-31.22,10.76-5.89,1.41-12.56,3-20.7,5.47-.28.09-.56.17-.84.26-2.23-.97-6.62-3.37-10.43-8.26-.04-.11-.08-.23-.13-.34l85.82-40.14c2.42,5.28,7.97,15.2,15.73,16.43ZM256.14,201.51c-3.48,1.07-6.85,2.14-10.13,3.24,1.16-2.82,2.41-6.38,2.68-9.01,2.61,2.79,5.32,4.64,7.45,5.78ZM334.29,140.3c.38,1.23.99,2.39,1.97,3.24.42.36.9.63,1.4.84l-2.74,1.28-1.52-2.9.88-2.46ZM330.47,144.79l1.24,2.37-46.73,21.86-11.62-25.08,57.11.85ZM269.43,143.88l12.34,26.64-36.45,17.05c-.17-.2-.32-.37-.4-.47l-21.31-43.91,45.82.68ZM221.71,143.34l21.67,44.66c.06.13.14.25.2.38l-50.7,23.71-20.75-47.38c13.23-5.79,33.87-14.66,49.58-21.37ZM164.16,150.95l4.92,11.23c-2.43,1.07-4.57,2.02-6.35,2.83.62-5.68,1.14-10.95,1.44-14.05ZM159.09,225.18c-.37-2.46-.77-6.94-.13-12.87.51-4.76.28-9.03.08-12.79-.23-4.25-.43-7.92.45-11.23.83-3.13,1.87-11.15,2.79-19.22,2-.9,4.82-2.16,8.23-3.65l20.77,47.43-27.86,13.03-4.33-.7ZM172.77,227.38l73.62-34.43c.09.13.19.26.28.38.07.19.15.37.22.57.62,1.88-1.25,7.28-3.11,11.6-15.11,5.18-28.19,11.11-39.81,20.97-2.42,2.06-4.71,3.61-6.85,4.82l-24.34-3.91ZM202.41,232.14c1.25-.87,2.53-1.85,3.85-2.96,11.04-9.37,23.16-14.98,37.71-20l.06.03s.02-.04.03-.06c5.17-1.78,10.64-3.49,16.48-5.27,8.03-2.44,14.65-4.02,20.49-5.42,11.14-2.66,19.93-4.76,32.04-11.06,14.57-7.59,36.71-16.19,52.66-19.86,3.25-.49,6.62-1.07,10.08-1.68,1.6-.28,3.24-.57,4.9-.85-4.88,3.29-8.19,7.33-10.41,10.07-22.08,27.31-25.46,58.76-21.26,79.09.1.51.24,1.05.37,1.59l-146.98-23.61Z"/>
            <path class="cls-36" d="M440.34,127.99c-2.21-2.7-4.74-5.04-7.19-7.3-2.75-2.54-5.36-4.94-7.49-7.79l-4.26,3.19c2.43,3.24,5.33,5.91,8.14,8.5,2.42,2.23,4.71,4.34,6.68,6.75.18.22.34.46.52.69h6.44c-.85-1.4-1.78-2.77-2.84-4.06Z"/>
            <path class="cls-36" d="M469.03,164.29l.23-5.32c-1.8-.08-3.68-.33-5.54-.76v5.44c1.8.35,3.59.56,5.31.64Z"/>
            <path class="cls-36" d="M463.73,163.65v-5.44c-5.97-1.39-11.76-4.73-13.91-10.89-1.72-4.93-3.64-10.37-6.64-15.28h-6.44c3.82,4.97,5.98,11.09,8.06,17.04,3.01,8.63,11.04,13.02,18.93,14.57Z"/>
            <path class="cls-36" d="M466.49,340.75l1.09-1.4c-1.21-.94-2.5-1.75-3.85-2.45v2.04c.96.54,1.89,1.12,2.76,1.8Z"/>
            <path class="cls-36" d="M407.59,342.9l.73,1.62c.14-.06,4.99-2.24,12.02-4.46h-5.66c-4.03,1.47-6.69,2.66-7.09,2.84Z"/>
            <path class="cls-36" d="M414.68,340.06h5.66c12.29-3.89,31.23-7.9,43.38-1.1v-2.04c-14.8-7.56-37.57-1.05-49.05,3.14Z"/>
            <polygon class="cls-36" points="413.37 357 415.83 354.45 400.86 340.06 395.74 340.06 413.37 357"/>
            <polygon class="cls-36" points="376.9 321.95 395.74 340.06 400.86 340.06 379.36 319.39 376.9 321.95"/>
            <path class="cls-36" d="M234.47,341.2l1.42,1.07c.25-.33.76-1.17,1.38-2.21h-2.06c-.33.54-.59.94-.74,1.14Z"/>
            <path class="cls-36" d="M241.23,329.05c-.1-.51-.2-1.01-.22-1.46-.02-.44.57-2.05,1.1-3.48.95-2.57,2.25-6.09,2.58-9.22.62-5.88-5.76-8.29-8.83-9.45-1.96-.74-9.46-1.64-16.7-2.5-5.55-.66-10.8-1.29-12.76-1.75-4.41-1.03-6.75-1.39-7.79,2.52-.67,2.52-1.63,3.13-1.64,3.13l.82,1.57c.27-.13,1.66-.97,2.52-4.25.57-2.16.93-2.36,5.67-1.25,2.06.48,7.35,1.12,12.96,1.78,6.81.81,14.52,1.73,16.28,2.4,3.95,1.49,8.13,3.44,7.69,7.6-.31,2.91-1.56,6.31-2.48,8.79-.82,2.22-1.25,3.42-1.2,4.19.03.53.14,1.1.25,1.69.2,1.04.4,2.11.09,2.84-.49,1.14-3.01,5.61-4.37,7.83h2.06c1.45-2.45,3.47-6.06,3.93-7.12.54-1.23.27-2.64.03-3.88Z"/>
          </g>
          <path class="cls-18" d="M363.48,223.29l-21.84-3.33,2.31-15.14-14.7-2.24-2.11,13.81-3.17-.48,1.21-7.96-39.12-5.97-1.23,8.03-10.17-1.55-2.08,13.65,2.32.35-1.46,9.56,46.98,7.16,1.12-7.33,3.17.48-1.25,8.22,14.7,2.24,1.3-8.49,21.84,3.33,2.19-14.35Z"/>
          <path class="cls-4" d="M363.48,223.29l-21.84-3.33,2.31-15.14-14.7-2.24-2.11,13.81-3.17-.48,1.21-7.96-39.12-5.97-1.23,8.03-10.17-1.55-2.08,13.65,2.32.35-1.46,9.56,46.98,7.16,1.12-7.33,3.17.48-1.25,8.22,14.7,2.24,1.3-8.49,21.84,3.33,2.19-14.35Z"/>
          <path class="cls-38" d="M312.58,265.1s-15.22-3.52-20.9-2.5c-5.68,1.02-5.68,2.61-4.32,8.18s2.84,2.28,9.32,11.94c6.48,9.65,12.61,18.06,15.79,20.22s2.84,4.43,3.98,6.14c1.14,1.7,10,7.61,11.7,11.02,1.7,3.41,4.2,15.91,5.57,18.75,1.36,2.84,2.5,3.98,2.5,3.98l26.32,2.17s6.06-2.24,4.92-7.92c-1.14-5.68-3.3-6.41-3.87-13.23s-3.29-8.86-1.7-12.27c1.59-3.41,2.95-5.79,2.16-7.27-.8-1.48-3.41-4.32-6.25-7.61-2.84-3.29-5.11-7.16-3.52-9.66s.8-8.63-.91-9.09-16.13-6.93-20.56-8.18-6.48-1.25-9.77-1.7c-3.29-.45-10.45-2.95-10.45-2.95Z"/>
          <rect class="cls-5" x="305.64" y="215.86" width="21.5" height="14.33" transform="translate(30.93 -38.42) rotate(7.31)"/>
        </g>
        <text class="cls-14" transform="translate(332.53 249.76)"><tspan class="cls-30" x="0" y="0">Muse</tspan><tspan x="38.89" y="0">o</tspan><tspan class="cls-1" x="48.31" y="0"> </tspan><tspan class="cls-30" x="51.19" y="0">Naciona</tspan><tspan x="109.08" y="0">l </tspan><tspan class="cls-39" x="0" y="17.35">d</tspan><tspan x="9.71" y="17.35">e</tspan><tspan class="cls-21" x="18.39" y="17.35"> </tspan><tspan class="cls-39" x="21.26" y="17.35">Antropologí</tspan><tspan x="108.7" y="17.35">a </tspan></text>
        <text class="cls-12" transform="translate(158.24 246.94) rotate(7.31)"><tspan class="cls-34" x="0" y="0">Av</tspan><tspan x="15.68" y="0">.</tspan><tspan class="cls-16" x="18.43" y="0"> </tspan><tspan class="cls-34" x="20.94" y="0">Pase</tspan><tspan x="48.32" y="0">o</tspan><tspan class="cls-16" x="56.18" y="0"> </tspan><tspan class="cls-34" x="58.7" y="0">d</tspan><tspan x="66.82" y="0">e</tspan><tspan class="cls-16" x="74.06" y="0"> </tspan><tspan class="cls-34" x="76.57" y="0">l</tspan><tspan x="79.22" y="0">a</tspan><tspan class="cls-16" x="86.02" y="0"> </tspan><tspan class="cls-26" x="88.54" y="0">Reform</tspan><tspan x="132.45" y="0">a</tspan></text>
        <text class="cls-8" transform="translate(222.35 220.57) rotate(-20.58)"><tspan class="cls-32" x="0" y="0">Calz</tspan><tspan class="cls-27" x="24.03" y="0">.</tspan><tspan class="cls-2" x="26.77" y="0"> </tspan><tspan class="cls-32" x="29.29" y="0">Mahatm</tspan><tspan x="78.76" y="0">a</tspan><tspan class="cls-2" x="85.56" y="0"> </tspan><tspan class="cls-32" x="88.08" y="0">Gandh</tspan><tspan x="126.96" y="0">i</tspan></text>
        <text>
          <textPath startOffset="7.43%" xlink:href="#path"><tspan class="cls-15"><tspan x="0" y="0">Av. Grutas</tspan></tspan>
          </textPath></text>
        <g>
          <path class="cls-9" d="M301.31,293.93h.93v9.09h5.03v.77h-5.95v-9.86Z"/>
          <path class="cls-9" d="M308.12,302v-.02c0-1.42,1.25-1.79,2.78-2.14,1.43-.32,1.87-.59,1.87-1.33v-.03c0-.99-.68-1.43-1.79-1.43s-2.02.54-2.44.93v-.65c.34-.43,1.22-1.03,2.53-1.03,1.64,0,2.56.88,2.56,2.44v3.24c0,1.37.05,1.82.05,1.82h-.66s-.23-.79-.25-1.67c-.26,1.13-1.16,1.82-2.45,1.82s-2.19-.72-2.19-1.94ZM312.77,300.78v-1.19c-.31.32-.86.59-1.8.85-1.45.43-1.93.73-1.93,1.48v.06c0,.82.54,1.33,1.5,1.33,1.1,0,2.24-.74,2.24-2.53Z"/>
          <path class="cls-9" d="M315.4,305.19l.02-.68c.49.45,1.37.88,2.67.88,1.67,0,2.72-.86,2.72-2.51v-1.42c-.31,1.28-1.4,2.07-2.81,2.07-1.9,0-3.16-1.33-3.16-3.72h0c0-2.19,1.36-3.5,3.16-3.5,1.4,0,2.5.66,2.81,1.99.01-.94.25-1.84.25-1.84h.63v6.28c0,2.24-1.43,3.41-3.52,3.41-1.48,0-2.39-.49-2.76-.96ZM320.8,299.95v-.15c0-1.77-1.19-2.78-2.62-2.78s-2.44.91-2.44,2.58v.39c0,1.9.88,2.88,2.38,2.88,1.28,0,2.68-.88,2.68-2.92Z"/>
          <path class="cls-9" d="M322.95,300.01v-.03c0-2.24,1.36-3.69,3.42-3.69s3.41,1.43,3.41,3.66v.03c0,2.61-1.54,3.95-3.41,3.95s-3.42-1.31-3.42-3.92ZM328.88,300.13v-.43c0-1.71-1-2.75-2.51-2.75s-2.51,1.03-2.51,2.75v.43c0,2.22,1.1,3.15,2.51,3.15s2.51-.93,2.51-3.15Z"/>
          <path class="cls-9" d="M333.32,299.96v-.03c0-2.33,1.39-3.62,3.15-3.62,1.42,0,2.51.79,2.82,2.14v-5.04h.88v10.38h-.63s-.25-.94-.25-2.02c-.29,1.3-1.4,2.17-2.79,2.17-1.88,0-3.18-1.43-3.18-3.98ZM339.29,300.12v-.15c0-1.93-1.2-2.95-2.64-2.95s-2.42.91-2.42,2.7v.42c0,2.04.9,3.13,2.39,3.13,1.28,0,2.67-.97,2.67-3.15Z"/>
          <path class="cls-9" d="M342.36,300.29c.02,1.96.93,2.95,2.78,2.95,1.05,0,1.9-.32,2.38-.71v.6c-.26.34-1.17.8-2.45.8-2.25,0-3.61-1.4-3.61-3.84v-.02c0-2.21,1.37-3.78,3.35-3.78s2.87,1.34,2.87,3.05c0,.31-.03.65-.09.94h-5.21ZM342.36,299.72h4.49v-.11c0-1.82-.74-2.65-2.05-2.65-1.4,0-2.41,1.06-2.44,2.76Z"/>
          <path class="cls-9" d="M351.29,298.76v-.03c0-2.96,1.4-4.98,4.32-4.98,1.62,0,2.55.56,2.98,1.06v.8c-.65-.57-1.59-1.05-2.93-1.05-2.45,0-3.44,1.57-3.44,3.93v.37c0,2.7,1.11,4.33,3.52,4.33,1.31,0,2.33-.56,2.9-1.13v.76c-.45.55-1.45,1.16-2.92,1.16-2.79,0-4.43-1.97-4.43-5.23Z"/>
          <path class="cls-9" d="M360.05,293.41h.88v5.12c.25-1.5,1.53-2.24,2.76-2.24,1.53,0,2.33.85,2.33,2.44v5.06h-.88v-5.21c0-1.02-.49-1.54-1.65-1.54-1.43,0-2.53,1.02-2.56,2.65v4.1h-.88v-10.38Z"/>
          <path class="cls-9" d="M367.18,302v-.02c0-1.42,1.25-1.79,2.78-2.14,1.43-.32,1.87-.59,1.87-1.33v-.03c0-.99-.68-1.43-1.79-1.43s-2.02.54-2.44.93v-.65c.34-.43,1.22-1.03,2.53-1.03,1.64,0,2.56.88,2.56,2.44v3.24c0,1.37.05,1.82.05,1.82h-.66s-.23-.79-.25-1.67c-.26,1.13-1.16,1.82-2.45,1.82s-2.19-.72-2.19-1.94ZM371.82,300.78v-1.19c-.31.32-.86.59-1.8.85-1.45.43-1.93.73-1.93,1.48v.06c0,.82.54,1.33,1.5,1.33,1.1,0,2.24-.74,2.24-2.53Z"/>
          <path class="cls-9" d="M374.05,299.25h2.51v.77h-2.51v-.77Z"/>
          <path class="cls-9" d="M301.06,311.89h.63s.25.94.25,1.85v.19c.29-1.37,1.48-2.21,2.9-2.21,1.87,0,3.07,1.42,3.07,3.69v.02c0,2.62-1.36,3.93-3.13,3.93-1.43,0-2.53-.85-2.84-2.11v4.23h-.88v-9.58ZM307,315.54v-.43c0-1.67-.89-2.67-2.41-2.67-1.42,0-2.65,1.06-2.65,2.84v.17c0,2.31,1.39,3.22,2.7,3.22,1.43,0,2.36-.99,2.36-3.13Z"/>
          <path class="cls-9" d="M309.13,316.58v-4.69h.89v4.84c0,1.22.42,1.94,1.68,1.94,1.37,0,2.41-1.08,2.44-2.68v-4.1h.88v7.33h-.63s-.25-.94-.25-1.85v-.17c-.25,1.46-1.47,2.17-2.61,2.17-1.65,0-2.41-1.03-2.41-2.79Z"/>
          <path class="cls-9" d="M316.75,308.83h.88v10.38h-.88v-10.38Z"/>
          <path class="cls-9" d="M319.77,317.18v-4.58h-1.05v-.51c1.14-.08,1.22-.45,1.39-2.08h.54v1.88h2.45v.71h-2.45v4.58c0,1.13.49,1.47,1.25,1.47.6,0,1-.14,1.37-.37v.48c-.17.28-.62.6-1.42.6-1.11,0-2.08-.54-2.08-2.17Z"/>
          <path class="cls-9" d="M324.93,315.71c.02,1.96.93,2.95,2.78,2.95,1.05,0,1.9-.32,2.38-.71v.6c-.26.34-1.17.8-2.45.8-2.25,0-3.61-1.4-3.61-3.84v-.02c0-2.21,1.37-3.78,3.35-3.78s2.87,1.34,2.87,3.05c0,.31-.03.65-.09.94h-5.21ZM324.93,315.14h4.49v-.11c0-1.82-.74-2.65-2.05-2.65-1.4,0-2.41,1.06-2.44,2.76Z"/>
          <path class="cls-9" d="M331.52,311.89h.63s.25.94.25,1.85v.19c.29-1.37,1.48-2.21,2.9-2.21,1.87,0,3.07,1.42,3.07,3.69v.02c0,2.62-1.36,3.93-3.13,3.93-1.43,0-2.53-.85-2.84-2.11v4.23h-.88v-9.58ZM337.46,315.54v-.43c0-1.67-.89-2.67-2.41-2.67-1.42,0-2.65,1.06-2.65,2.84v.17c0,2.31,1.39,3.22,2.7,3.22,1.43,0,2.36-.99,2.36-3.13Z"/>
          <path class="cls-9" d="M340.16,315.71c.02,1.96.93,2.95,2.78,2.95,1.05,0,1.9-.32,2.38-.71v.6c-.26.34-1.17.8-2.45.8-2.25,0-3.61-1.4-3.61-3.84v-.02c0-2.21,1.37-3.78,3.35-3.78s2.87,1.34,2.87,3.05c0,.31-.03.65-.09.94h-5.21ZM340.16,315.14h4.49v-.11c0-1.82-.74-2.65-2.05-2.65-1.4,0-2.41,1.06-2.44,2.76Z"/>
          <path class="cls-9" d="M346.34,315.5v-.02c0-2.75,1.82-3.76,3.44-3.76,1.3,0,1.97.37,2.28.77v.62c-.56-.43-1.16-.68-2.24-.68-1.33,0-2.58.8-2.58,2.7v.45c0,2.04.96,3.12,2.61,3.12,1.06,0,1.85-.42,2.33-.79v.57c-.29.4-1.08.88-2.36.88-2.1,0-3.49-1.47-3.49-3.86Z"/>
        </g>
        <text class="cls-13" transform="translate(181.85 298.61)"><tspan class="cls-29" x="0" y="0">Bosqu</tspan><tspan x="37.34" y="0">e</tspan><tspan class="cls-22" x="44.57" y="0"> </tspan><tspan class="cls-29" x="47.08" y="0">d</tspan><tspan x="55.21" y="0">e</tspan><tspan class="cls-29" x="0" y="15.42">Chapultepe</tspan><tspan x="68.37" y="15.42">c</tspan></text>
        <text class="cls-10" transform="translate(236.88 188.2) rotate(-24.84)"><tspan class="cls-42" x="0" y="0">Rubé</tspan><tspan x="30.64" y="0">n</tspan><tspan class="cls-40" x="38.36" y="0"> </tspan><tspan class="cls-42" x="40.87" y="0">Darí</tspan><tspan class="cls-33" x="64.09" y="0">o</tspan></text>
        <g>
          <g class="cls-24">
            <rect class="cls-20" x="142.67" y="135.44" width="79.71" height="79.71"/>
            <rect class="cls-31" x="139.28" y="132.1" width="79.71" height="79.66"/>
            <g>
              <path class="cls-19" d="M185.95,159.72v1.09c0,.22-.18.4-.4.4h-1.09c-.22,0-.4-.18-.4-.4v-.15c0-.22-.18-.4-.4-.4h-1.09c-.22,0-.4.18-.4.4v.15c0,.22-.18.4-.4.4h-2.97c-.22,0-.4.18-.4.4v.15c0,.22.18.4.4.4h.15c.22,0,.4.18.4.4v2.03c0,.22.18.4.4.4h.15c.22,0,.4-.18.4-.4v-.15c0-.22.18-.4.4-.4h2.97c.22,0,.4-.18.4-.4v-.15c0-.22.18-.4.4-.4h1.09c.22,0,.4.18.4.4v.15c0,.22.18.4.4.4h1.09c.22,0,.4-.18.4-.4v-2.98c0-.22.18-.4.4-.4h.15c.22,0,.4-.18.4-.4v-.15c0-.22-.18-.4-.4-.4h-2.03c-.22,0-.4.18-.4.4Z"/>
              <path class="cls-19" d="M178.96,162.15h-.15c-.22,0-.4-.18-.4-.4v-.15c0-.22-.18-.4-.4-.4h-2.98c-.22,0-.4.18-.4.4v.15c0,.22-.18.4-.4.4h-1.09c-.22,0-.4.18-.4.4v2.97c0,.22.18.4.4.4h1.09c.22,0,.4.18.4.4v.15c0,.22.18.4.4.4h2.98c.22,0,.4-.18.4-.4v-1.09c0-.22.18-.4.4-.4h.15c.22,0,.4-.18.4-.4v-2.03c0-.22-.18-.4-.4-.4Z"/>
              <path class="cls-19" d="M200.07,170.23v-.15c0-.22-.18-.4-.4-.4h-.15c-.22,0-.4-.18-.4-.4v-.15c0-.22-.18-.4-.4-.4h-.15c-.22,0-.4-.18-.4-.4v-.15c0-.22-.18-.4-.4-.4h-.15c-.22,0-.4-.18-.4-.4v-.15c0-.22-.18-.4-.4-.4h-.15c-.22,0-.4-.18-.4-.4v-1.09c0-.22-.18-.4-.4-.4h-1.09c-.22,0-.4-.18-.4-.4v-.15c0-.22-.18-.4-.4-.4h-1.09c-.22,0-.4-.18-.4-.4v-.15c0-.22-.18-.4-.4-.4h-2.03c-.22,0-.4-.18-.4-.4v-.15c0-.22-.18-.4-.4-.4h-1.09c-.22,0-.4.18-.4.4v1.09c0,.22-.18.4-.4.4h-1.09c-.22,0-.4-.18-.4-.4v-.15c0-.22-.18-.4-.4-.4h-1.09c-.22,0-.4.18-.4.4v.15c0,.22-.18.4-.4.4h-2.97c-.22,0-.4.18-.4.4v.15c0,.22-.18.4-.4.4h-1.09c-.22,0-.4.18-.4.4v1.09c0,.22.18.4.4.4h1.09c.22,0,.4.18.4.4v.15c0,.22.18.4.4.4h.15c.22,0,.4.18.4.4v.15c0,.22.18.4.4.4h.15c.22,0,.4.18.4.4v1.09c0,.22.18.4.4.4h.15c.22,0,.4.18.4.4v.15c0,.22.18.4.4.4h.15c.22,0,.4.18.4.4v.15c0,.22.18.4.4.4h.15c.22,0,.4.18.4.4v.15c0,.22.18.4.4.4h.15c.22,0,.4.18.4.4v.15c0,.22.18.4.4.4h.15c.22,0,.4-.18.4-.4v-.15c0-.22.18-.4.4-.4h.15c.22,0,.4-.18.4-.4v-.15c0-.22.18-.4.4-.4h1.09c.22,0,.4-.18.4-.4v-.15c0-.22.18-.4.4-.4h1.09c.22,0,.4-.18.4-.4v-.15c0-.22.18-.4.4-.4h7.68c.22,0,.4-.18.4-.4Z"/>
              <path class="cls-19" d="M190.65,183.41v-.15c0-.22.18-.4.4-.4h2.03c.22,0,.4-.18.4-.4v-1.09c0-.22.18-.4.4-.4h.15c.22,0,.4-.18.4-.4v-1.09c0-.22-.18-.4-.4-.4h-.15c-.22,0-.4-.18-.4-.4v-.15c0-.22-.18-.4-.4-.4h-1.09c-.22,0-.4-.18-.4-.4v-.15c0-.22-.18-.4-.4-.4h-1.09c-.22,0-.4-.18-.4-.4v-.15c0-.22-.18-.4-.4-.4h-1.09c-.22,0-.4-.18-.4-.4v-.15c0-.22-.18-.4-.4-.4h-1.09c-.22,0-.4-.18-.4-.4v-1.09c0-.22-.18-.4-.4-.4h-.15c-.22,0-.4-.18-.4-.4v-.15c0-.22-.18-.4-.4-.4h-.15c-.22,0-.4-.18-.4-.4v-.15c0-.22-.18-.4-.4-.4h-.15c-.22,0-.4.18-.4.4v2.03c0,.22-.18.4-.4.4h-1.09c-.22,0-.4.18-.4.4v.15c0,.22-.18.4-.4.4h-1.09c-.22,0-.4.18-.4.4v.15c0,.22-.18.4-.4.4h-1.09c-.22,0-.4.18-.4.4v1.09c0,.22.18.4.4.4h.15c.22,0,.4.18.4.4v2.03c0,.22-.18.4-.4.4h-.15c-.22,0-.4.18-.4.4v.15c0,.22-.18.4-.4.4h-.15c-.22,0-.4.18-.4.4v.15c0,.22-.18.4-.4.4h-.15c-.22,0-.4.18-.4.4v.15c0,.22.18.4.4.4h1.09c.22,0,.4.18.4.4v.15c0,.22.18.4.4.4h1.09c.22,0,.4.18.4.4v6.74c0,.22.18.4.4.4h.15c.22,0,.4-.18.4-.4v-.15c0-.22.18-.4.4-.4h.15c.22,0,.4-.18.4-.4v-.15c0-.22.18-.4.4-.4h.15c.22,0,.4-.18.4-.4v-1.09c0-.22.18-.4.4-.4h.15c.22,0,.4-.18.4-.4v-1.09c0-.22.18-.4.4-.4h.15c.22,0,.4-.18.4-.4v-.15c0-.22.18-.4.4-.4h1.09c.22,0,.4-.18.4-.4v-.15c0-.22.18-.4.4-.4h1.09c.22,0,.4-.18.4-.4v-.15c0-.22.18-.4.4-.4h2.03c.22,0,.4-.18.4-.4Z"/>
              <path class="cls-19" d="M199.67,181.92h-.15c-.22,0-.4-.18-.4-.4v-.15c0-.22-.18-.4-.4-.4h-.15c-.22,0-.4-.18-.4-.4v-2.97c0-.22.18-.4.4-.4h.15c.22,0,.4-.18.4-.4v-1.09c0-.22.18-.4.4-.4h.15c.22,0,.4-.18.4-.4v-3.92c0-.22-.18-.4-.4-.4h-7.68c-.22,0-.4.18-.4.4v.15c0,.22-.18.4-.4.4h-1.09c-.22,0-.4.18-.4.4v.15c0,.22-.18.4-.4.4h-1.09c-.22,0-.4.18-.4.4v.15c0,.22-.18.4-.4.4h-.15c-.22,0-.4.18-.4.4v.15c0,.22-.18.4-.4.4h-.15c-.22,0-.4.18-.4.4v.15c0,.22.18.4.4.4h1.09c.22,0,.4.18.4.4v.15c0,.22.18.4.4.4h1.09c.22,0,.4.18.4.4v.15c0,.22.18.4.4.4h1.09c.22,0,.4.18.4.4v.15c0,.22.18.4.4.4h1.09c.22,0,.4.18.4.4v.15c0,.22.18.4.4.4h.15c.22,0,.4.18.4.4v1.09c0,.22-.18.4-.4.4h-.15c-.22,0-.4.18-.4.4v1.09c0,.22.18.4.4.4h2.03c.22,0,.4.18.4.4v.15c0,.22.18.4.4.4h1.09c.22,0,.4.18.4.4v.15c0,.22.18.4.4.4h1.09c.22,0,.4-.18.4-.4v-2.03c0-.22-.18-.4-.4-.4Z"/>
              <path class="cls-19" d="M199.67,188.51h-.15c-.22,0-.4-.18-.4-.4v-.15c0-.22-.18-.4-.4-.4h-.15c-.22,0-.4-.18-.4-.4v-1.09c0-.22.18-.4.4-.4h.15c.22,0,.4-.18.4-.4v-.15c0-.22-.18-.4-.4-.4h-.15c-.22,0-.4-.18-.4-.4v-.15c0-.22-.18-.4-.4-.4h-1.09c-.22,0-.4-.18-.4-.4v-.15c0-.22-.18-.4-.4-.4h-4.86c-.22,0-.4.18-.4.4v.15c0,.22-.18.4-.4.4h-2.03c-.22,0-.4.18-.4.4v.15c0,.22-.18.4-.4.4h-1.09c-.22,0-.4.18-.4.4v.15c0,.22-.18.4-.4.4h-1.09c-.22,0-.4.18-.4.4v.15c0,.22-.18.4-.4.4h-.15c-.22,0-.4.18-.4.4v1.09c0,.22-.18.4-.4.4h-.15c-.22,0-.4.18-.4.4v1.09c0,.22-.18.4-.4.4h-.15c-.22,0-.4.18-.4.4v.15c0,.22-.18.4-.4.4h-.15c-.22,0-.4.18-.4.4v.15c0,.22-.18.4-.4.4h-.15c-.22,0-.4.18-.4.4v1.09c0,.22-.18.4-.4.4h-.15c-.22,0-.4-.18-.4-.4v-.15c0-.22-.18-.4-.4-.4h-1.09c-.22,0-.4.18-.4.4v.15c0,.22-.18.4-.4.4h-.15c-.22,0-.4.18-.4.4v1.09c0,.22.18.4.4.4h.15c.22,0,.4.18.4.4v.15c0,.22.18.4.4.4h.15c.22,0,.4.18.4.4v1.09c0,.22.18.4.4.4h.15c.22,0,.4.18.4.4v.15c0,.22.18.4.4.4h2.03c.22,0,.4.18.4.4v.15c0,.22.18.4.4.4h.15c.22,0,.4.18.4.4v.15c0,.22.18.4.4.4h2.03c.22,0,.4.18.4.4v.15c0,.22.18.4.4.4h1.09c.22,0,.4.18.4.4v.15c0,.22.18.4.4.4h1.09c.22,0,.4-.18.4-.4v-.15c0-.22.18-.4.4-.4h.15c.22,0,.4-.18.4-.4v-.15c0-.22.18-.4.4-.4h.15c.22,0,.4-.18.4-.4v-.15c0-.22.18-.4.4-.4h.15c.22,0,.4-.18.4-.4v-.15c0-.22.18-.4.4-.4h2.03c.22,0,.4.18.4.4v.15c0,.22.18.4.4.4h1.09c.22,0,.4.18.4.4v.15c0,.22.18.4.4.4h1.09c.22,0,.4-.18.4-.4v-.15c0-.22.18-.4.4-.4h.15c.22,0,.4-.18.4-.4v-1.09c0-.22.18-.4.4-.4h.15c.22,0,.4-.18.4-.4v-3.92c0-.22-.18-.4-.4-.4h-.15c-.22,0-.4-.18-.4-.4v-1.09c0-.22.18-.4.4-.4h.15c.22,0,.4-.18.4-.4v-2.98c0-.22-.18-.4-.4-.4Z"/>
              <path class="cls-19" d="M182.73,170.62h-.15c-.22,0-.4-.18-.4-.4v-1.09c0-.22-.18-.4-.4-.4h-.15c-.22,0-.4-.18-.4-.4v-.15c0-.22-.18-.4-.4-.4h-.15c-.22,0-.4-.18-.4-.4v-.15c0-.22-.18-.4-.4-.4h-4.86c-.22,0-.4.18-.4.4v.15c0,.22-.18.4-.4.4h-.15c-.22,0-.4.18-.4.4v.15c0,.22-.18.4-.4.4h-1.09c-.22,0-.4.18-.4.4v2.98c0,.22-.18.4-.4.4h-.15c-.22,0-.4.18-.4.4v.15c0,.22.18.4.4.4h2.98c.22,0,.4.18.4.4v.15c0,.22.18.4.4.4h2.03c.22,0,.4-.18.4-.4v-.15c0-.22.18-.4.4-.4h2.98c.22,0,.4.18.4.4v.15c0,.22.18.4.4.4h1.09c.22,0,.4-.18.4-.4v-2.97c0-.22-.18-.4-.4-.4Z"/>
              <path class="cls-19" d="M179.9,158.38h-.15c-.22,0-.4.18-.4.4v1.09c0,.22.18.4.4.4h.15c.22,0,.4.18.4.4v.15c0,.22.18.4.4.4h1.09c.22,0,.4-.18.4-.4v-.15c0-.22.18-.4.4-.4h1.09c.22,0,.4.18.4.4v.15c0,.22.18.4.4.4h1.09c.22,0,.4-.18.4-.4v-1.09c0-.22.18-.4.4-.4h2.03c.22,0,.4-.18.4-.4v-1.09c0-.22.18-.4.4-.4h.15c.22,0,.4-.18.4-.4v-1.09c0-.22-.18-.4-.4-.4h-6.74c-.22,0-.4-.18-.4-.4v-.15c0-.22-.18-.4-.4-.4h-1.09c-.22,0-.4.18-.4.4v2.98c0,.22-.18.4-.4.4Z"/>
              <path class="cls-19" d="M174.11,161.21h5.8c.22,0,.4-.18.4-.4v-.15c0-.22-.18-.4-.4-.4h-.15c-.22,0-.4-.18-.4-.4v-1.09c0-.22.18-.4.4-.4h.15c.22,0,.4-.18.4-.4v-2.98c0-.22-.18-.4-.4-.4h-.15c-.22,0-.4-.18-.4-.4v-.15c0-.22-.18-.4-.4-.4h-2.98c-.22,0-.4.18-.4.4v2.98c0,.22-.18.4-.4.4h-.15c-.22,0-.4.18-.4.4v.15c0,.22-.18.4-.4.4h-.15c-.22,0-.4.18-.4.4v2.03c0,.22.18.4.4.4Z"/>
              <path class="cls-19" d="M168.06,155.01v.15c0,.22-.18.4-.4.4h-.15c-.22,0-.4.18-.4.4v1.09c0,.22.18.4.4.4h.15c.22,0,.4.18.4.4v.15c0,.22-.18.4-.4.4h-.15c-.22,0-.4.18-.4.4v.15c0,.22-.18.4-.4.4h-.15c-.22,0-.4.18-.4.4v.15c0,.22-.18.4-.4.4h-.15c-.22,0-.4.18-.4.4v.15c0,.22-.18.4-.4.4h-.15c-.22,0-.4.18-.4.4v.15c0,.22.18.4.4.4h.15c.22,0,.4.18.4.4v1.09c0,.22.18.4.4.4h.15c.22,0,.4-.18.4-.4v-.15c0-.22.18-.4.4-.4h.15c.22,0,.4-.18.4-.4v-.15c0-.22.18-.4.4-.4h2.98c.22,0,.4-.18.4-.4v-.15c0-.22.18-.4.4-.4h1.09c.22,0,.4.18.4.4v.15c0,.22.18.4.4.4h1.09c.22,0,.4-.18.4-.4v-.15c0-.22-.18-.4-.4-.4h-.15c-.22,0-.4-.18-.4-.4v-2.03c0-.22.18-.4.4-.4h.15c.22,0,.4-.18.4-.4v-.15c0-.22.18-.4.4-.4h.15c.22,0,.4-.18.4-.4v-2.03c0-.22-.18-.4-.4-.4h-2.03c-.22,0-.4-.18-.4-.4v-1.09c0-.22-.18-.4-.4-.4h-2.03c-.22,0-.4.18-.4.4v1.09c0,.22-.18.4-.4.4h-1.09c-.22,0-.4.18-.4.4Z"/>
              <path class="cls-19" d="M175.99,144.26h.15c.22,0,.4.18.4.4v.15c0,.22-.18.4-.4.4h-1.09c-.22,0-.4.18-.4.4v1.09c0,.22.18.4.4.4h.15c.22,0,.4.18.4.4v1.09c0,.22.18.4.4.4h.15c.22,0,.4.18.4.4v1.09c0,.22.18.4.4.4h.15c.22,0,.4.18.4.4v1.09c0,.22.18.4.4.4h.15c.22,0,.4.18.4.4v.15c0,.22.18.4.4.4h.15c.22,0,.4.18.4.4v.15c0,.22.18.4.4.4h2.03c.22,0,.4.18.4.4v.15c0,.22.18.4.4.4h5.8c.22,0,.4-.18.4-.4v-2.98c0-.22-.18-.4-.4-.4h-.15c-.22,0-.4-.18-.4-.4v-.15c0-.22-.18-.4-.4-.4h-.15c-.22,0-.4-.18-.4-.4v-1.09c0-.22-.18-.4-.4-.4h-1.09c-.22,0-.4-.18-.4-.4v-.15c0-.22-.18-.4-.4-.4h-2.98c-.22,0-.4-.18-.4-.4v-.15c0-.22-.18-.4-.4-.4h-.15c-.22,0-.4-.18-.4-.4v-.15c0-.22-.18-.4-.4-.4h-.15c-.22,0-.4-.18-.4-.4v-.15c0-.22.18-.4.4-.4h.15c.22,0,.4-.18.4-.4v-1.09c0-.22.18-.4.4-.4h.15c.22,0,.4-.18.4-.4v-.15c0-.22.18-.4.4-.4h.15c.22,0,.4-.18.4-.4v-2.03c0-.22-.18-.4-.4-.4h-.15c-.22,0-.4-.18-.4-.4v-.15c0-.22-.18-.4-.4-.4h-.15c-.22,0-.4-.18-.4-.4v-.15c0-.22-.18-.4-.4-.4h-1.09c-.22,0-.4.18-.4.4v1.09c0,.22-.18.4-.4.4h-.15c-.22,0-.4.18-.4.4v.15c0,.22-.18.4-.4.4h-.15c-.22,0-.4.18-.4.4v.15c0,.22-.18.4-.4.4h-.15c-.22,0-.4.18-.4.4v2.03c0,.22.18.4.4.4Z"/>
              <path class="cls-19" d="M177.48,152.34v-1.09c0-.22-.18-.4-.4-.4h-.15c-.22,0-.4-.18-.4-.4v-1.09c0-.22-.18-.4-.4-.4h-.15c-.22,0-.4-.18-.4-.4v-.15c0-.22-.18-.4-.4-.4h-2.03c-.22,0-.4-.18-.4-.4v-.15c0-.22-.18-.4-.4-.4h-1.09c-.22,0-.4.18-.4.4v.15c0,.22-.18.4-.4.4h-.15c-.22,0-.4.18-.4.4v.15c0,.22-.18.4-.4.4h-.15c-.22,0-.4.18-.4.4v2.03c0,.22.18.4.4.4h.15c.22,0,.4.18.4.4v.15c0,.22.18.4.4.4h2.03c.22,0,.4.18.4.4v1.09c0,.22.18.4.4.4h2.03c.22,0,.4-.18.4-.4v-.15c0-.22.18-.4.4-.4h2.03c.22,0,.4-.18.4-.4v-.15c0-.22-.18-.4-.4-.4h-.15c-.22,0-.4-.18-.4-.4Z"/>
              <path class="cls-19" d="M160.93,193.21h.15c.22,0,.4.18.4.4v.15c0,.22.18.4.4.4h.15c.22,0,.4.18.4.4v.15c0,.22.18.4.4.4h.15c.22,0,.4.18.4.4v.15c0,.22.18.4.4.4h.15c.22,0,.4.18.4.4v.15c0,.22.18.4.4.4h1.09c.22,0,.4.18.4.4v.15c0,.22.18.4.4.4h1.09c.22,0,.4.18.4.4v.15c0,.22.18.4.4.4h8.62c.22,0,.4-.18.4-.4v-1.09c0-.22-.18-.4-.4-.4h-.15c-.22,0-.4-.18-.4-.4v-.15c0-.22-.18-.4-.4-.4h-.15c-.22,0-.4-.18-.4-.4v-1.09c0-.22.18-.4.4-.4h.15c.22,0,.4-.18.4-.4v-.15c0-.22.18-.4.4-.4h1.09c.22,0,.4.18.4.4v.15c0,.22.18.4.4.4h.15c.22,0,.4-.18.4-.4v-8.62c0-.22-.18-.4-.4-.4h-1.09c-.22,0-.4-.18-.4-.4v-.15c0-.22-.18-.4-.4-.4h-1.09c-.22,0-.4-.18-.4-.4v-.15c0-.22.18-.4.4-.4h.15c.22,0,.4-.18.4-.4v-.15c0-.22.18-.4.4-.4h.15c.22,0,.4-.18.4-.4v-.15c0-.22.18-.4.4-.4h.15c.22,0,.4-.18.4-.4v-2.03c0-.22-.18-.4-.4-.4h-.15c-.22,0-.4-.18-.4-.4v-1.09c0-.22.18-.4.4-.4h1.09c.22,0,.4-.18.4-.4v-.15c0-.22.18-.4.4-.4h1.09c.22,0,.4-.18.4-.4v-1.09c0-.22-.18-.4-.4-.4h-2.98c-.22,0-.4.18-.4.4v.15c0,.22-.18.4-.4.4h-2.03c-.22,0-.4-.18-.4-.4v-.15c0-.22-.18-.4-.4-.4h-2.98c-.22,0-.4-.18-.4-.4v-.15c0-.22-.18-.4-.4-.4h-2.03c-.22,0-.4.18-.4.4v.15c0,.22-.18.4-.4.4h-.15c-.22,0-.4.18-.4.4v.15c0,.22-.18.4-.4.4h-.15c-.22,0-.4.18-.4.4v2.98c0,.22-.18.4-.4.4h-.15c-.22,0-.4.18-.4.4v1.09c0,.22-.18.4-.4.4h-.15c-.22,0-.4.18-.4.4v.15c0,.22-.18.4-.4.4h-.15c-.22,0-.4.18-.4.4v1.09c0,.22-.18.4-.4.4h-1.09c-.22,0-.4.18-.4.4v.15c0,.22-.18.4-.4.4h-.15c-.22,0-.4.18-.4.4v.15c0,.22-.18.4-.4.4h-1.09c-.22,0-.4.18-.4.4v.15c0,.22.18.4.4.4h.15c.22,0,.4.18.4.4v2.97c0,.22.18.4.4.4h.15c.22,0,.4.18.4.4v2.98c0,.22.18.4.4.4Z"/>
              <path class="cls-19" d="M159.98,184.74h.15c.22,0,.4-.18.4-.4v-.15c0-.22.18-.4.4-.4h.15c.22,0,.4-.18.4-.4v-.15c0-.22.18-.4.4-.4h1.09c.22,0,.4-.18.4-.4v-1.09c0-.22.18-.4.4-.4h.15c.22,0,.4-.18.4-.4v-.15c0-.22.18-.4.4-.4h.15c.22,0,.4-.18.4-.4v-1.09c0-.22.18-.4.4-.4h.15c.22,0,.4-.18.4-.4v-2.98c0-.22.18-.4.4-.4h.15c.22,0,.4-.18.4-.4v-.15c0-.22.18-.4.4-.4h.15c.22,0,.4-.18.4-.4v-.15c0-.22.18-.4.4-.4h.15c.22,0,.4-.18.4-.4v-1.09c0-.22.18-.4.4-.4h.15c.22,0,.4-.18.4-.4v-.15c0-.22-.18-.4-.4-.4h-2.03c-.22,0-.4.18-.4.4v.15c0,.22-.18.4-.4.4h-2.03c-.22,0-.4.18-.4.4v.15c0,.22-.18.4-.4.4h-.15c-.22,0-.4.18-.4.4v2.03c0,.22-.18.4-.4.4h-.15c-.22,0-.4.18-.4.4v1.09c0,.22-.18.4-.4.4h-1.09c-.22,0-.4.18-.4.4v1.09c0,.22-.18.4-.4.4h-.15c-.22,0-.4.18-.4.4v5.8c0,.22.18.4.4.4Z"/>
              <path class="cls-19" d="M155.28,183.8h1.09c.22,0,.4.18.4.4v.15c0,.22.18.4.4.4h1.09c.22,0,.4-.18.4-.4v-1.09c0-.22-.18-.4-.4-.4h-.15c-.22,0-.4-.18-.4-.4v-11.45c0-.22.18-.4.4-.4h.15c.22,0,.4-.18.4-.4v-.15c0-.22.18-.4.4-.4h1.09c.22,0,.4-.18.4-.4v-.15c0-.22.18-.4.4-.4h1.09c.22,0,.4-.18.4-.4v-.15c0-.22.18-.4.4-.4h.15c.22,0,.4-.18.4-.4v-.15c0-.22.18-.4.4-.4h.15c.22,0,.4-.18.4-.4v-.15c0-.22-.18-.4-.4-.4h-.15c-.22,0-.4-.18-.4-.4v-.15c0-.22.18-.4.4-.4h1.09c.22,0,.4-.18.4-.4v-2.03c0-.22-.18-.4-.4-.4h-.15c-.22,0-.4-.18-.4-.4v-.15c0-.22-.18-.4-.4-.4h-.15c-.22,0-.4.18-.4.4v.15c0,.22-.18.4-.4.4h-.15c-.22,0-.4.18-.4.4v.15c0,.22-.18.4-.4.4h-1.09c-.22,0-.4.18-.4.4v.15c0,.22-.18.4-.4.4h-1.09c-.22,0-.4.18-.4.4v.15c0,.22-.18.4-.4.4h-.15c-.22,0-.4.18-.4.4v.15c0,.22-.18.4-.4.4h-.15c-.22,0-.4.18-.4.4v.15c0,.22-.18.4-.4.4h-.15c-.22,0-.4.18-.4.4v2.98c0,.22-.18.4-.4.4h-.15c-.22,0-.4.18-.4.4v1.09c0,.22-.18.4-.4.4h-.15c-.22,0-.4.18-.4.4v.15c0,.22-.18.4-.4.4h-.15c-.22,0-.4.18-.4.4v.15c0,.22-.18.4-.4.4h-.15c-.22,0-.4.18-.4.4v1.09c0,.22.18.4.4.4h.15c.22,0,.4.18.4.4v.15c0,.22.18.4.4.4h1.09c.22,0,.4.18.4.4v.15c0,.22.18.4.4.4h.15c.22,0,.4.18.4.4v2.03c0,.22-.18.4-.4.4h-.15c-.22,0-.4.18-.4.4v2.03c0,.22.18.4.4.4Z"/>
              <path class="cls-19" d="M158.1,182.86h.15c.22,0,.4.18.4.4v1.09c0,.22.18.4.4.4h.15c.22,0,.4-.18.4-.4v-5.8c0-.22.18-.4.4-.4h.15c.22,0,.4-.18.4-.4v-1.09c0-.22.18-.4.4-.4h1.09c.22,0,.4-.18.4-.4v-1.09c0-.22.18-.4.4-.4h.15c.22,0,.4-.18.4-.4v-2.03c0-.22.18-.4.4-.4h.15c.22,0,.4-.18.4-.4v-.15c0-.22.18-.4.4-.4h2.03c.22,0,.4-.18.4-.4v-.15c0-.22.18-.4.4-.4h2.03c.22,0,.4.18.4.4v.15c0,.22-.18.4-.4.4h-.15c-.22,0-.4.18-.4.4v1.09c0,.22.18.4.4.4h2.03c.22,0,.4-.18.4-.4v-2.98c0-.22.18-.4.4-.4h1.09c.22,0,.4-.18.4-.4v-.15c0-.22.18-.4.4-.4h.15c.22,0,.4-.18.4-.4v-1.09c0-.22-.18-.4-.4-.4h-1.09c-.22,0-.4-.18-.4-.4v-3.92c0-.22-.18-.4-.4-.4h-1.09c-.22,0-.4.18-.4.4v.15c0,.22-.18.4-.4.4h-2.98c-.22,0-.4.18-.4.4v.15c0,.22-.18.4-.4.4h-.15c-.22,0-.4.18-.4.4v.15c0,.22-.18.4-.4.4h-.15c-.22,0-.4.18-.4.4v.15c0,.22-.18.4-.4.4h-1.09c-.22,0-.4.18-.4.4v.15c0,.22.18.4.4.4h.15c.22,0,.4.18.4.4v.15c0,.22-.18.4-.4.4h-.15c-.22,0-.4.18-.4.4v.15c0,.22-.18.4-.4.4h-.15c-.22,0-.4.18-.4.4v.15c0,.22-.18.4-.4.4h-1.09c-.22,0-.4.18-.4.4v.15c0,.22-.18.4-.4.4h-1.09c-.22,0-.4.18-.4.4v.15c0,.22-.18.4-.4.4h-.15c-.22,0-.4.18-.4.4v11.45c0,.22.18.4.4.4Z"/>
            </g>
          </g>
          <path class="cls-37" d="M179.13,135.9c19.85,0,36,16.15,36,36s-16.15,36-36,36-36-16.15-36-36,16.15-36,36-36M179.13,132.04c-22.01,0-39.85,17.84-39.85,39.86s17.84,39.86,39.85,39.86,39.86-17.85,39.86-39.86-17.84-39.86-39.86-39.86h0Z"/>
          <path class="cls-6" d="M172.76,151.79c-2.93,0-5.3,2.34-5.3,5.23s2.37,5.23,5.3,5.23,5.3-2.34,5.3-5.23-2.37-5.23-5.3-5.23Z"/>
          <text class="cls-11" transform="translate(173.04 182)"><tspan class="cls-35" x="0" y="0">CDM</tspan><tspan class="cls-25" x="29.95" y="0">X</tspan></text>
        </g>
      </g>
    </g>
  </g>
</svg>